<svg xmlns="http://www.w3.org/2000/svg" viewBox="0 0 1440 760" role="img" aria-label="Abstract technology learning background">
  <defs>
    <linearGradient id="bg" x1="0" y1="0" x2="1" y2="1">
      <stop offset="0" stop-color="#f8fbff"/>
      <stop offset="0.48" stop-color="#eef8f9"/>
      <stop offset="1" stop-color="#fff7e7"/>
    </linearGradient>
    <linearGradient id="navyTeal" x1="0" y1="0" x2="1" y2="1">
      <stop offset="0" stop-color="#123a6c"/>
      <stop offset="1" stop-color="#0f8aa3"/>
    </linearGradient>
    <linearGradient id="saffron" x1="0" y1="0" x2="1" y2="1">
      <stop offset="0" stop-color="#f1a51f"/>
      <stop offset="1" stop-color="#d96f1d"/>
    </linearGradient>
    <pattern id="grid" width="54" height="54" patternUnits="userSpaceOnUse">
      <path d="M54 0H0v54" fill="none" stroke="#123a6c" stroke-opacity="0.08" stroke-width="1"/>
    </pattern>
    <filter id="softShadow" x="-20%" y="-20%" width="140%" height="140%">
      <feDropShadow dx="0" dy="22" stdDeviation="26" flood-color="#123a6c" flood-opacity="0.16"/>
    </filter>
  </defs>

  <rect width="1440" height="760" fill="url(#bg)"/>
  <rect width="1440" height="760" fill="url(#grid)" opacity="0.7"/>

  <circle cx="118" cy="126" r="112" fill="#0f8aa3" opacity="0.09"/>
  <circle cx="1322" cy="628" r="160" fill="#f1a51f" opacity="0.13"/>
  <circle cx="1240" cy="116" r="82" fill="#123a6c" opacity="0.08"/>

  <g opacity="0.5" stroke="#123a6c" stroke-width="2" fill="none">
    <path d="M196 584c102-72 171-62 268 18 75 62 160 77 255 18"/>
    <path d="M926 184c75 50 145 50 218 0 52-35 101-42 160-12"/>
  </g>

  <g filter="url(#softShadow)">
    <rect x="820" y="164" width="392" height="246" rx="28" fill="#ffffff" opacity="0.94"/>
    <rect x="848" y="198" width="142" height="18" rx="9" fill="#123a6c" opacity="0.16"/>
    <rect x="848" y="236" width="306" height="16" rx="8" fill="#0f8aa3" opacity="0.18"/>
    <rect x="848" y="270" width="260" height="16" rx="8" fill="#f1a51f" opacity="0.24"/>
    <rect x="848" y="319" width="82" height="58" rx="14" fill="url(#navyTeal)" opacity="0.92"/>
    <rect x="958" y="319" width="82" height="58" rx="14" fill="url(#saffron)" opacity="0.92"/>
    <rect x="1068" y="319" width="82" height="58" rx="14" fill="#123a6c" opacity="0.88"/>
  </g>

  <g filter="url(#softShadow)">
    <rect x="196" y="168" width="342" height="224" rx="28" fill="#ffffff" opacity="0.94"/>
    <path d="M250 254l42-42m0 0l42 42m-42-42v114" stroke="#0f8aa3" stroke-width="18" stroke-linecap="round" stroke-linejoin="round" opacity="0.9"/>
    <path d="M383 226c38 0 70 31 70 70s-32 70-70 70-70-31-70-70 32-70 70-70z" fill="none" stroke="#f1a51f" stroke-width="16" opacity="0.9"/>
    <rect x="246" y="332" width="226" height="18" rx="9" fill="#123a6c" opacity="0.16"/>
  </g>

  <g transform="translate(584 266)" filter="url(#softShadow)">
    <circle cx="122" cy="96" r="104" fill="#ffffff" opacity="0.96"/>
    <g stroke="#123a6c" stroke-width="7" stroke-linecap="round" opacity="0.78">
      <path d="M72 76l42 42 62-78"/>
      <path d="M44 138h156"/>
    </g>
    <g fill="#0f8aa3">
      <circle cx="54" cy="56" r="13"/>
      <circle cx="202" cy="64" r="13"/>
      <circle cx="82" cy="168" r="13"/>
      <circle cx="182" cy="164" r="13"/>
    </g>
    <g stroke="#0f8aa3" stroke-width="3" opacity="0.45">
      <path d="M54 56l148 8M54 56l28 112M202 64l-20 100M82 168h100"/>
    </g>
  </g>
</svg>
