<?xml version="1.0" encoding="UTF-8"?>
<svg version="1.1" xmlns="http://www.w3.org/2000/svg" width="318" height="159">
<path d="M0 0 C22.77 0 45.54 0 69 0 C69 10.56 69 21.12 69 32 C57.78 32 46.56 32 35 32 C35 72.92 35 113.84 35 156 C23.45 156 11.9 156 0 156 C0 104.52 0 53.04 0 0 Z " fill="#2F2F2F" transform="translate(165,1)"/>
<path d="M0 0 C19.68205574 3.61838088 37.16109867 13.54493531 49.09375 29.86328125 C50.83386525 32.52875439 52.44680493 35.22217035 54 38 C54.38671875 38.66386719 54.7734375 39.32773437 55.171875 40.01171875 C65.13852225 58.29668312 66.04810798 80.460966 60.34765625 100.13671875 C53.60101929 120.40769626 40.09170267 136.21793401 21 146 C16.74046084 147.93465521 12.44508248 149.54411933 8 151 C7.02417969 151.32226562 6.04835938 151.64453125 5.04296875 151.9765625 C-7.61172403 155.38298295 -21.04139665 154.1851229 -34 154 C-34 144.43 -34 134.86 -34 125 C-30.473125 124.9175 -26.94625 124.835 -23.3125 124.75 C-7.97860492 124.18092251 6.39554484 120.90848299 17.3359375 109.2421875 C26.44977315 96.96204276 28.99615129 84.0667883 28 69 C26.16903314 56.98428001 21.23057225 46.09858069 12 38 C9.9340584 37.0514535 7.85651129 36.1278779 5.76953125 35.2265625 C1.79246207 32.96517506 0.27902787 31.9943475 -0.97290039 27.53295898 C-1.33082987 23.35833152 -1.04908266 19.23225784 -0.75 15.0625 C-0.68973735 13.60113071 -0.63499629 12.13952267 -0.5859375 10.67773438 C-0.45434609 7.11349062 -0.2477862 3.55827341 0 0 Z " fill="#3DAEA9" transform="translate(254,3)"/>
<path d="M0 0 C11.88 0 23.76 0 36 0 C36 51.48 36 102.96 36 156 C24.12 156 12.24 156 0 156 C0 104.52 0 53.04 0 0 Z " fill="#4B4B4B" transform="translate(110,1)"/>
<path d="M0 0 C11.88 0 23.76 0 36 0 C36 51.48 36 102.96 36 156 C24.12 156 12.24 156 0 156 C0 104.52 0 53.04 0 0 Z " fill="#7F7F7F" transform="translate(1,1)"/>
<path d="M0 0 C11.55 0 23.1 0 35 0 C35 51.48 35 102.96 35 156 C23.45 156 11.9 156 0 156 C0 104.52 0 53.04 0 0 Z " fill="#656565" transform="translate(56,1)"/>
<path d="M0 0 C22.77 0 45.54 0 69 0 C68.67 0.66 68.34 1.32 68 2 C46.22 2 24.44 2 2 2 C2 52.49 2 102.98 2 155 C2.66 155.33 3.32 155.66 4 156 C2.68 156 1.36 156 0 156 C0 104.52 0 53.04 0 0 Z " fill="#1E1E1E" transform="translate(165,1)"/>
<path d="M0 0 C11.88 0 23.76 0 36 0 C36 51.48 36 102.96 36 156 C24.12 156 12.24 156 0 156 C0 155.67 0 155.34 0 155 C11.22 155 22.44 155 34 155 C34 104.84 34 54.68 34 3 C21.46854053 2.1661368 21.46854053 2.1661368 9 1.9375 C7.96359375 1.94426758 7.96359375 1.94426758 6.90625 1.95117188 C5.27079178 1.96252922 3.63538054 1.98042763 2 2 C1.67 2.99 1.34 3.98 1 5 C0.67 5 0.34 5 0 5 C0 3.35 0 1.7 0 0 Z " fill="#353535" transform="translate(110,1)"/>
<path d="M0 0 C0.99 0.495 0.99 0.495 2 1 C2.15380174 20.00144973 2.3018377 39.00293597 2.4429636 58.00448418 C2.50862238 66.82674376 2.57618531 75.64898117 2.64819336 84.47119141 C2.7109329 92.15843892 2.77013804 99.84570403 2.82505554 107.53301156 C2.85427256 111.60534562 2.88528881 115.67764843 2.92053413 119.74993515 C2.95362434 123.57965857 2.98200346 127.40938746 3.00670624 131.23917389 C3.01663365 132.64772257 3.02830998 134.05626013 3.04183006 135.4647789 C3.05997698 137.38206961 3.07132821 139.29942111 3.08229065 141.21676636 C3.09058679 142.29157698 3.09888292 143.3663876 3.10743046 144.47376823 C3 147 3 147 2 149 C2.99 149.33 3.98 149.66 5 150 C3.35 150 1.7 150 0 150 C0 100.5 0 51 0 0 Z " fill="#6C6C6C" transform="translate(1,7)"/>
<path d="M0 0 C11.22 0 22.44 0 34 0 C34.495 0.99 34.495 0.99 35 2 C24.11 2 13.22 2 2 2 C1.67 2.99 1.34 3.98 1 5 C0.67 5 0.34 5 0 5 C0 3.35 0 1.7 0 0 Z " fill="#3C3C3C" transform="translate(110,1)"/>
<path d="M0 0 C0.66 0.33 1.32 0.66 2 1 C1.06981474 2.46300982 0.13055973 3.92025579 -0.8125 5.375 C-1.33457031 6.18710938 -1.85664063 6.99921875 -2.39453125 7.8359375 C-4 10 -4 10 -7 12 C-7 9 -7 9 -5 7 C-2.22195575 3.68393433 -2.22195575 3.68393433 0 0 Z " fill="#419F99" transform="translate(305,118)"/>
<path d="M0 0 C0.33 0 0.66 0 1 0 C1 4.29 1 8.58 1 13 C-1.31 13 -3.62 13 -6 13 C-5.360625 12.71125 -4.72125 12.4225 -4.0625 12.125 C-1.84793921 11.17176549 -1.84793921 11.17176549 -1 9 C-0.77532169 7.46331135 -0.59203195 5.92031946 -0.4375 4.375 C-0.35371094 3.55773437 -0.26992187 2.74046875 -0.18359375 1.8984375 C-0.12300781 1.27195313 -0.06242188 0.64546875 0 0 Z " fill="#252525" transform="translate(199,144)"/>
<path d="M0 0 C0.33 0 0.66 0 1 0 C1 2.97 1 5.94 1 9 C0.01 9.33 -0.98 9.66 -2 10 C-1.85950482 8.52031676 -1.71245174 7.04125484 -1.5625 5.5625 C-1.48128906 4.73878906 -1.40007812 3.91507812 -1.31640625 3.06640625 C-1 1 -1 1 0 0 Z " fill="#40A19D" transform="translate(316,67)"/>
<path d="M0 0 C0.99 0 1.98 0 3 0 C2.75 1.875 2.75 1.875 2 4 C-0.0625 5.25 -0.0625 5.25 -2 6 C-1.49396008 3.83125748 -1.00016187 2.00032373 0 0 Z " fill="#39A59F" transform="translate(294,130)"/>
<path d="M0 0 C0.99 0.495 0.99 0.495 2 1 C2.73075648 3.3140622 3.40138258 5.64828869 4 8 C2.66666667 8 1.33333333 8 0 8 C0 5.36 0 2.72 0 0 Z " fill="#3C9F9D" transform="translate(308,43)"/>
<path d="M0 0 C1.65 1.65 3.3 3.3 5 5 C4.67 5.66 4.34 6.32 4 7 C1.53199953 5.84826645 -0.04783565 4.95216435 -2 3 C-1.34 3 -0.68 3 0 3 C0 2.01 0 1.02 0 0 Z " fill="#3C9C9B" transform="translate(301,32)"/>
</svg>
